<svg data-v-fde0c5aa="" xmlns="http://www.w3.org/2000/svg" viewBox="0 0 300 300" class="font"><!----><defs data-v-fde0c5aa=""><!----></defs><rect data-v-fde0c5aa="" fill="#111F51" x="0" y="0" width="300px" height="300px" class="logo-background-square"></rect><defs data-v-fde0c5aa=""><!----></defs><g data-v-fde0c5aa="" id="307f0d89-474a-4409-bcc7-5fa4614f823c" fill="#19CEDA" transform="matrix(3.159557819366455,0,0,3.159557819366455,39.30489729072388,118.8783568570268)"><path d="M11.20 14L8.95 4.05L8.75 4.05L5.67 11.49L2.58 4.05L2.38 4.05L0.22 14L1.60 14L2.87 7.78L5.57 14.11L5.75 14.11L8.50 7.71L9.86 14ZM19.11 4.20L17.63 4.20L15.12 9.17L12.63 4.20L11.13 4.20L14.46 10.56L14.46 14L15.79 14L15.79 10.53ZM26.52 4.20L26.52 8.41L21.67 8.41L21.67 4.20L20.34 4.20L20.34 14L21.67 14L21.67 9.70L26.52 9.70L26.52 14L27.85 14L27.85 4.20ZM32.75 4.20L30.17 4.20L30.17 14L32.75 14C35.83 14 37.66 11.79 37.66 9.07C37.66 6.37 35.83 4.20 32.75 4.20ZM32.76 12.70L31.50 12.70L31.50 5.50L32.76 5.50C35 5.50 36.32 7.07 36.32 9.07C36.32 11.03 35 12.70 32.76 12.70ZM40.40 5.68C40.92 5.68 41.30 5.29 41.30 4.77C41.30 4.28 40.92 3.89 40.40 3.89C39.89 3.89 39.51 4.28 39.51 4.77C39.51 5.29 39.89 5.68 40.40 5.68ZM39.75 14L41.06 14L41.06 7L39.75 7ZM49.92 7L48.62 7L48.62 8.13C48.09 7.39 47.26 6.90 46.23 6.90C44.28 6.90 42.95 8.48 42.95 10.50C42.95 12.52 44.28 14.10 46.23 14.10C47.28 14.10 48.10 13.59 48.65 12.84L48.65 13.37C48.65 14.92 47.75 15.65 46.47 15.65C45.64 15.65 44.74 15.32 43.96 14.77L43.95 16.16C44.72 16.59 45.54 16.90 46.61 16.90C48.27 16.90 49.94 15.85 49.94 13.71ZM46.45 12.82C45.19 12.82 44.31 11.79 44.31 10.50C44.31 9.23 45.19 8.19 46.45 8.19C47.71 8.19 48.62 9.27 48.62 10.50C48.62 11.73 47.71 12.82 46.45 12.82ZM52.91 5.68C53.42 5.68 53.80 5.29 53.80 4.77C53.80 4.28 53.42 3.89 52.91 3.89C52.39 3.89 52.01 4.28 52.01 4.77C52.01 5.29 52.39 5.68 52.91 5.68ZM52.25 14L53.56 14L53.56 7L52.25 7ZM58.93 7L57.48 7L57.48 5.12L56.17 5.12L56.17 7L55.27 7L55.27 8.26L56.17 8.26L56.17 14L57.48 14L57.48 8.26L58.93 8.26ZM65.13 7L65.13 8.12C64.58 7.39 63.77 6.90 62.73 6.90C60.79 6.90 59.46 8.48 59.46 10.50C59.46 12.52 60.79 14.10 62.73 14.10C63.77 14.10 64.58 13.61 65.13 12.88L65.13 14L66.44 14L66.44 7ZM62.96 12.82C61.70 12.82 60.82 11.79 60.82 10.50C60.82 9.23 61.70 8.19 62.96 8.19C64.22 8.19 65.13 9.27 65.13 10.50C65.13 11.73 64.22 12.82 62.96 12.82ZM68.53 14L69.85 14L69.85 2.80L68.53 2.80Z"></path></g><!----><!----></svg>